<svg width="16" height="18" viewBox="0 0 16 18" fill="none" xmlns="http://www.w3.org/2000/svg">
<path d="M0.913086 6.66634V16.6663C0.913086 16.8874 1.00088 17.0993 1.15716 17.2556C1.31344 17.4119 1.52541 17.4997 1.74642 17.4997H5.91309C6.1341 17.4997 6.34606 17.4119 6.50234 17.2556C6.65862 17.0993 6.74642 16.8874 6.74642 16.6663V10.833H10.0798V16.6663C10.0798 16.8874 10.1676 17.0993 10.3238 17.2556C10.4801 17.4119 10.6921 17.4997 10.9131 17.4997H15.0798C15.3008 17.4997 15.5127 17.4119 15.669 17.2556C15.8253 17.0993 15.9131 16.8874 15.9131 16.6663V6.66634C15.9131 6.53697 15.883 6.40938 15.8251 6.29366C15.7673 6.17795 15.6832 6.0773 15.5798 5.99967L8.91309 0.999675C8.76884 0.891489 8.59339 0.833008 8.41309 0.833008C8.23278 0.833008 8.05733 0.891489 7.91309 0.999675L1.24642 5.99967C1.14292 6.0773 1.05892 6.17795 1.00106 6.29366C0.943207 6.40938 0.913086 6.53697 0.913086 6.66634ZM2.57975 7.08301L8.41309 2.70801L14.2464 7.08301V15.833H11.7464V9.99967C11.7464 9.77866 11.6586 9.5667 11.5023 9.41042C11.3461 9.25414 11.1341 9.16634 10.9131 9.16634H5.91309C5.69207 9.16634 5.48011 9.25414 5.32383 9.41042C5.16755 9.5667 5.07975 9.77866 5.07975 9.99967V15.833H2.57975V7.08301Z" fill="#1999DC"/>
</svg>
